<?xml version="1.0" encoding="UTF-8" standalone="no"?>
<!-- Created with Inkscape (http://www.inkscape.org/) -->

<svg
   xmlns:dc="http://purl.org/dc/elements/1.1/"
   xmlns:cc="http://creativecommons.org/ns#"
   xmlns:rdf="http://www.w3.org/1999/02/22-rdf-syntax-ns#"
   xmlns:svg="http://www.w3.org/2000/svg"
   xmlns="http://www.w3.org/2000/svg"
   version="1.1"
   width="31.886093"
   height="64.19471"
   viewBox="0 0 31.886092 64.194709"
   id="Layer_1"
   xml:space="preserve"><metadata
   id="metadata356"><rdf:RDF><cc:Work
       rdf:about=""><dc:format>image/svg+xml</dc:format><dc:type
         rdf:resource="http://purl.org/dc/dcmitype/StillImage" /><dc:title></dc:title></cc:Work></rdf:RDF></metadata><defs
   id="defs354" />




















<path
   d="m 31.650649,12.494711 c 0.744,2.072 -0.334,4.353 -2.406,5.095 l -23.9140003,8.568 c -2.074,0.743 -4.35399996,-0.335 -5.09599996,-2.407 l 0,0 c -0.742,-2.072 0.334,-4.354 2.40599996,-5.096 l 23.9160003,-8.569 c 2.073,-0.7409999 4.352,0.338 5.094,2.409 l 0,0 z"
   id="path51"
   style="fill:#8cc63f" />
<path
   d="m 31.650649,23.173711 c 0.744,2.072 -0.334,4.354 -2.406,5.095 l -23.9160003,8.568 c -2.072,0.743 -4.35199996,-0.335 -5.09399996,-2.407 l 0,0 c -0.742,-2.072 0.334,-4.353 2.40599996,-5.096 l 23.9160003,-8.568 c 2.071,-0.741 4.352,0.336 5.094,2.408 l 0,0 z"
   id="path53"
   style="fill:#8cc63f" />
<path
   d="m 26.623649,2.6157112 c 0.732,2.052 -0.332,4.311 -2.385,5.046 l -13.93,4.9899998 c -2.0510003,0.735 -4.3090003,-0.333 -5.0450003,-2.383 l 0,0 c -0.734,-2.0519998 0.332,-4.3109998 2.383,-5.0449998 L 21.576649,0.23271116 c 2.051,-0.73600003 4.31,0.332 5.047,2.38300004 l 0,0 z"
   id="path55"
   style="fill:#8cc63f" />
<g
   transform="translate(-360.72135,-163.63429)"
   id="g57">
	<path
   d="m 373.46,211.238 c -1.325,0 -2.43,-1.041 -2.495,-2.378 -0.049,-1.012 -0.264,-2.343 -1.006,-2.941 -0.653,-0.525 -1.61,-0.374 -1.62,-0.37 -1.342,0.223 -2.646,-0.66 -2.897,-1.999 -0.252,-1.338 0.588,-2.627 1.921,-2.905 0.318,-0.067 3.185,-0.594 5.633,1.3 1.819,1.408 2.817,3.652 2.964,6.671 0.067,1.379 -0.996,2.551 -2.376,2.619 -0.042,0.002 -0.083,0.003 -0.124,0.003 l 0,0 z"
   id="path59"
   style="fill:#8cc63f" />
</g>
<g
   transform="translate(-360.72135,-163.63429)"
   id="g61">
	<path
   d="m 382.011,210.417 c -1.381,0 -2.5,-1.119 -2.5,-2.5 0,-13.361 9.475,-13.516 9.57,-13.516 1.381,0 2.5,1.119 2.5,2.5 0,1.366 -1.096,2.477 -2.456,2.5 -0.509,0.025 -4.614,0.481 -4.614,8.516 0,1.38 -1.119,2.5 -2.5,2.5 l 0,0 z"
   id="path63"
   style="fill:#8cc63f" />
</g>
<path
   d="M 27.558649,44.883711 H 6.6366487 c -1.174,0 -2.123,0.95 -2.123,2.123 v 3.364 c 0,0.126 0.014,0.249 0.033,0.368 0.295,3.176 2.701,5.864 6.1840003,7.356 v 3.38 c 0,1.502 1.217,2.72 2.719,2.72 h 6.801 c 1.502,0 2.721,-1.218 2.721,-2.72 v -3.196 c 3.734,-1.456 6.354,-4.253 6.672,-7.521 0.023,-0.125 0.039,-0.254 0.039,-0.387 v -3.364 c -0.001,-1.173 -0.952,-2.123 -2.124,-2.123 z"
   id="path65"
   style="fill:#8cc63f" />















<linearGradient
   x1="106.0225"
   y1="487.64789"
   x2="106.0225"
   y2="467.6438"
   id="SVGID_1_"
   gradientUnits="userSpaceOnUse">
	<stop
   id="stop100"
   style="stop-color:#009245;stop-opacity:1"
   offset="0" />
	<stop
   id="stop102"
   style="stop-color:#cce6aa;stop-opacity:1"
   offset="1" />
</linearGradient>


<linearGradient
   x1="285.16061"
   y1="494.67331"
   x2="285.16061"
   y2="424.9859"
   id="SVGID_2_"
   gradientUnits="userSpaceOnUse"
   gradientTransform="matrix(1,-0.0035,0.0035,1,-0.5495,6.3274)">
	<stop
   id="stop109"
   style="stop-color:#8cc63f;stop-opacity:1"
   offset="0" />
	<stop
   id="stop111"
   style="stop-color:#cce6aa;stop-opacity:1"
   offset="1" />
</linearGradient>


<linearGradient
   x1="196.71629"
   y1="480.90579"
   x2="239.0154"
   y2="445.65649"
   id="SVGID_3_"
   gradientUnits="userSpaceOnUse">
	<stop
   id="stop118"
   style="stop-color:#8cc63f;stop-opacity:1"
   offset="0" />
	<stop
   id="stop120"
   style="stop-color:#cce6aa;stop-opacity:1"
   offset="1" />
</linearGradient>


<linearGradient
   x1="188.5654"
   y1="480.71921"
   x2="133.48779"
   y2="436.6571"
   id="SVGID_4_"
   gradientUnits="userSpaceOnUse">
	<stop
   id="stop127"
   style="stop-color:#8cc63f;stop-opacity:1"
   offset="0" />
	<stop
   id="stop129"
   style="stop-color:#cce6aa;stop-opacity:1"
   offset="1" />
</linearGradient>


<linearGradient
   x1="283.9971"
   y1="576.60889"
   x2="313.79199"
   y2="576.60889"
   id="SVGID_5_"
   gradientUnits="userSpaceOnUse">
	<stop
   id="stop136"
   style="stop-color:#8cc63f;stop-opacity:1"
   offset="0" />
	<stop
   id="stop138"
   style="stop-color:#cce6aa;stop-opacity:1"
   offset="1" />
</linearGradient>


<linearGradient
   x1="3208.6729"
   y1="554.1499"
   x2="3227.9795"
   y2="554.1499"
   id="SVGID_6_"
   gradientUnits="userSpaceOnUse"
   gradientTransform="matrix(-1,0,0,1,3488.3047,0)">
	<stop
   id="stop145"
   style="stop-color:#8cc63f;stop-opacity:1"
   offset="0" />
	<stop
   id="stop147"
   style="stop-color:#cce6aa;stop-opacity:1"
   offset="1" />
</linearGradient>


<linearGradient
   x1="208.9951"
   y1="540.81787"
   x2="224.1436"
   y2="540.81787"
   id="SVGID_7_"
   gradientUnits="userSpaceOnUse"
   gradientTransform="translate(82.9824,0)">
	<stop
   id="stop154"
   style="stop-color:#8cc63f;stop-opacity:1"
   offset="0" />
	<stop
   id="stop156"
   style="stop-color:#cce6aa;stop-opacity:1"
   offset="1" />
</linearGradient>





<linearGradient
   x1="192.1519"
   y1="490.90869"
   x2="192.1519"
   y2="437.8335"
   id="SVGID_8_"
   gradientUnits="userSpaceOnUse">
	<stop
   id="stop169"
   style="stop-color:#8cc63f;stop-opacity:1"
   offset="0" />
	<stop
   id="stop171"
   style="stop-color:#cce6aa;stop-opacity:1"
   offset="1" />
</linearGradient>



<linearGradient
   x1="286.23831"
   y1="491.17429"
   x2="286.23831"
   y2="440.92471"
   id="SVGID_9_"
   gradientUnits="userSpaceOnUse">
	<stop
   id="stop180"
   style="stop-color:#009245;stop-opacity:1"
   offset="0.3515" />
	<stop
   id="stop182"
   style="stop-color:#68be63;stop-opacity:1"
   offset="1" />
</linearGradient>


<linearGradient
   x1="397.45901"
   y1="455.9487"
   x2="329.1633"
   y2="487.67319"
   id="SVGID_10_"
   gradientUnits="userSpaceOnUse">
	<stop
   id="stop189"
   style="stop-color:#8cc63f;stop-opacity:1"
   offset="0" />
	<stop
   id="stop191"
   style="stop-color:#cce6aa;stop-opacity:1"
   offset="1" />
</linearGradient>


<linearGradient
   x1="349.6875"
   y1="450.52979"
   x2="380.97061"
   y2="426.737"
   id="SVGID_11_"
   gradientUnits="userSpaceOnUse">
	<stop
   id="stop198"
   style="stop-color:#8cc63f;stop-opacity:1"
   offset="0" />
	<stop
   id="stop200"
   style="stop-color:#cce6aa;stop-opacity:1"
   offset="1" />
</linearGradient>


<linearGradient
   x1="106.3965"
   y1="423.31879"
   x2="106.3965"
   y2="477.07449"
   id="SVGID_12_"
   gradientUnits="userSpaceOnUse">
	<stop
   id="stop207"
   style="stop-color:#8cc63f;stop-opacity:1"
   offset="0" />
	<stop
   id="stop209"
   style="stop-color:#cce6aa;stop-opacity:1"
   offset="1" />
</linearGradient>


<linearGradient
   x1="106.2095"
   y1="566.96039"
   x2="106.2095"
   y2="613.66687"
   id="SVGID_13_"
   gradientUnits="userSpaceOnUse">
	<stop
   id="stop216"
   style="stop-color:#8cc63f;stop-opacity:1"
   offset="0" />
	<stop
   id="stop218"
   style="stop-color:#cce6aa;stop-opacity:1"
   offset="1" />
</linearGradient>




<linearGradient
   x1="196.5186"
   y1="548.31488"
   x2="207.8772"
   y2="536.70941"
   id="SVGID_14_"
   gradientUnits="userSpaceOnUse">
	<stop
   id="stop229"
   style="stop-color:#009245;stop-opacity:1"
   offset="0.3515" />
	<stop
   id="stop231"
   style="stop-color:#68be63;stop-opacity:1"
   offset="1" />
</linearGradient>


<linearGradient
   x1="362.02341"
   y1="560.63232"
   x2="390.06741"
   y2="560.63232"
   id="SVGID_15_"
   gradientUnits="userSpaceOnUse"
   gradientTransform="translate(-359.81988,-542.18961)">
	<stop
   id="stop238"
   style="stop-color:#8cc63f;stop-opacity:1"
   offset="0" />
	<stop
   id="stop240"
   style="stop-color:#cce6aa;stop-opacity:1"
   offset="1" />
</linearGradient>


<linearGradient
   x1="362.02341"
   y1="571.50049"
   x2="390.06741"
   y2="571.50049"
   id="SVGID_16_"
   gradientUnits="userSpaceOnUse"
   gradientTransform="translate(-359.81988,-542.18961)">
	<stop
   id="stop247"
   style="stop-color:#8cc63f;stop-opacity:1"
   offset="0" />
	<stop
   id="stop249"
   style="stop-color:#cce6aa;stop-opacity:1"
   offset="1" />
</linearGradient>


<linearGradient
   x1="367.14551"
   y1="548.74463"
   x2="384.94531"
   y2="548.74463"
   id="SVGID_17_"
   gradientUnits="userSpaceOnUse"
   gradientTransform="translate(-359.81988,-542.18961)">
	<stop
   id="stop256"
   style="stop-color:#8cc63f;stop-opacity:1"
   offset="0" />
	<stop
   id="stop258"
   style="stop-color:#cce6aa;stop-opacity:1"
   offset="1" />
</linearGradient>


<linearGradient
   x1="377.46191"
   y1="593.17719"
   x2="377.46191"
   y2="608.3783"
   id="SVGID_18_"
   gradientUnits="userSpaceOnUse"
   gradientTransform="translate(-359.81988,-542.18961)">
	<stop
   id="stop265"
   style="stop-color:#8cc63f;stop-opacity:1"
   offset="0" />
	<stop
   id="stop267"
   style="stop-color:#cce6aa;stop-opacity:1"
   offset="1" />
</linearGradient>



<radialGradient
   cx="100.6152"
   cy="653.76709"
   r="18.1702"
   id="SVGID_19_"
   gradientUnits="userSpaceOnUse">
	<stop
   id="stop276"
   style="stop-color:#cce6aa;stop-opacity:1"
   offset="0" />
	<stop
   id="stop278"
   style="stop-color:#8cc63f;stop-opacity:1"
   offset="1" />
</radialGradient>




<linearGradient
   x1="100.6157"
   y1="648.69678"
   x2="100.6157"
   y2="659.7124"
   id="SVGID_20_"
   gradientUnits="userSpaceOnUse">
	<stop
   id="stop289"
   style="stop-color:#009245;stop-opacity:1"
   offset="0.3515" />
	<stop
   id="stop291"
   style="stop-color:#68be63;stop-opacity:1"
   offset="1" />
</linearGradient>




<linearGradient
   x1="283.12259"
   y1="654.64398"
   x2="283.12259"
   y2="707.1073"
   id="SVGID_21_"
   gradientUnits="userSpaceOnUse">
	<stop
   id="stop302"
   style="stop-color:#8cc63f;stop-opacity:1"
   offset="0" />
	<stop
   id="stop304"
   style="stop-color:#cce6aa;stop-opacity:1"
   offset="1" />
</linearGradient>





<linearGradient
   x1="341.33499"
   y1="675.62549"
   x2="372.73929"
   y2="675.62549"
   id="SVGID_22_"
   gradientUnits="userSpaceOnUse">
	<stop
   id="stop317"
   style="stop-color:#8cc63f;stop-opacity:1"
   offset="0" />
	<stop
   id="stop319"
   style="stop-color:#cce6aa;stop-opacity:1"
   offset="1" />
</linearGradient>


<linearGradient
   x1="367.87399"
   y1="659.63129"
   x2="399.2803"
   y2="659.63129"
   id="SVGID_23_"
   gradientUnits="userSpaceOnUse">
	<stop
   id="stop326"
   style="stop-color:#009245;stop-opacity:1"
   offset="0.3515" />
	<stop
   id="stop328"
   style="stop-color:#68be63;stop-opacity:1"
   offset="1" />
</linearGradient>

<linearGradient
   x1="191.27589"
   y1="654.84418"
   x2="191.27589"
   y2="694.43451"
   id="SVGID_24_"
   gradientUnits="userSpaceOnUse">
	<stop
   id="stop333"
   style="stop-color:#8cc63f;stop-opacity:1"
   offset="0" />
	<stop
   id="stop335"
   style="stop-color:#cce6aa;stop-opacity:1"
   offset="1" />
</linearGradient>

<linearGradient
   x1="208.42239"
   y1="633.85303"
   x2="208.42239"
   y2="652.68573"
   id="SVGID_25_"
   gradientUnits="userSpaceOnUse">
	<stop
   id="stop340"
   style="stop-color:#8cc63f;stop-opacity:1"
   offset="0" />
	<stop
   id="stop342"
   style="stop-color:#cce6aa;stop-opacity:1"
   offset="1" />
</linearGradient>


</svg>