<?xml version="1.0" encoding="UTF-8" standalone="no"?>
<!-- Created with Inkscape (http://www.inkscape.org/) -->
<svg xmlns:dc="http://purl.org/dc/elements/1.1/" xmlns:cc="http://creativecommons.org/ns#" xmlns:rdf="http://www.w3.org/1999/02/22-rdf-syntax-ns#" xmlns:svg="http://www.w3.org/2000/svg" xmlns="http://www.w3.org/2000/svg" xmlns:sodipodi="http://sodipodi.sourceforge.net/DTD/sodipodi-0.dtd" xmlns:inkscape="http://www.inkscape.org/namespaces/inkscape" width="468.51712" height="454.86139" id="svg2" sodipodi:version="0.32" inkscape:version="0.46" sodipodi:docname="worm_apple.svg" inkscape:output_extension="org.inkscape.output.svg.inkscape" version="1.0" inkscape:export-filename="/home/roger/mis-dibujos/open/worm_apple.png" inkscape:export-xdpi="90" inkscape:export-ydpi="90">
  <defs id="defs4">
    <inkscape:path-effect bendpath-nodetypes="cs" prop_scale="1" bendpath="M 744.236,745.051 C 744.236,745.051 390.709,772.954 563.03,512.469 " id="path-effect3442" effect="bend_path"/>
    <inkscape:path-effect effect="bend_path" id="path-effect3435" bendpath="M 389.236,1004.05 C 389.236,1004.05 35.709,1031.95 208.03,771.469 " prop_scale="1" bendpath-nodetypes="cs"/>
    <inkscape:path-effect effect="bend_path" id="path-effect3422" bendpath="M 1084.49,261.334 C 1060.41,420.41 690.57,665.384 796.675,715.197" prop_scale="1" bendpath-nodetypes="cs"/>
    <inkscape:perspective sodipodi:type="inkscape:persp3d" inkscape:vp_x="0 : 526.18109 : 1" inkscape:vp_y="0 : 1000 : 0" inkscape:vp_z="744.09448 : 526.18109 : 1" inkscape:persp3d-origin="372.04724 : 350.78739 : 1" id="perspective10"/>
  </defs>
  <sodipodi:namedview id="base" pagecolor="#ffffff" bordercolor="#666666" borderopacity="1.0" inkscape:pageopacity="0.0" inkscape:pageshadow="2" inkscape:zoom="1" inkscape:cx="273.77617" inkscape:cy="289.74761" inkscape:document-units="px" inkscape:current-layer="layer1" showgrid="false" showguides="true" inkscape:guide-bbox="true" inkscape:window-width="1272" inkscape:window-height="944" inkscape:window-x="0" inkscape:window-y="0"/>
  <g inkscape:label="Capa 1" inkscape:groupmode="layer" id="layer1" transform="translate(-239.48288,-171.5136)">
    <path style="fill:#c83737;fill-opacity:1;fill-rule:nonzero;stroke:none;stroke-width:6;stroke-linecap:round;stroke-linejoin:round;stroke-miterlimit:4;stroke-dasharray:none;stroke-dashoffset:0;stroke-opacity:1" d="M 467.46588,317.11684 C 376.28741,314.82604 322,373.81875 322,443.6836 C 322,513.54846 387.16871,621.7934 467.46588,621.7934 C 481.31298,621.7934 494.70314,620.09247 507.39382,616.94332 C 524.4034,623.01669 543.01903,626.375 562.53412,626.375 C 642.83129,626.375 708,518.13006 708,448.26521 C 708,378.40035 676.0479,322.27114 595.75074,322.27114 C 537.7996,328.57084 535.85665,339.98706 523.16098,351.15672 C 506.15651,319.88883 488.69182,317.68954 467.46588,317.11684 z" id="path3480" sodipodi:nodetypes="csscssccc"/>
    <path style="fill:#d35f5f;fill-opacity:1;fill-rule:nonzero;stroke:none;stroke-width:6;stroke-linecap:round;stroke-linejoin:round;stroke-miterlimit:4;stroke-dasharray:none;stroke-dashoffset:0;stroke-opacity:1" d="M 332,442.88608 C 332,487.65195 361.14382,549.56422 403.81175,582.89461 C 376.64619,549.03457 359.54266,504.70896 359.54266,470.42874 C 359.54266,406.28661 380.88596,324.12999 505.59588,336.73313 C 492.25819,326.73154 485.79623,324.71131 467.05322,324.69047 C 389.25227,320.30904 343.04033,372.11311 332,442.88608 z M 583.32679,331.42437 C 539.50457,342.1372 533.90387,338.35705 532.79405,355.81942 C 600.24735,338.16115 627.1686,351.54265 668.25,373.36955 C 652.18845,347.70617 624.77618,331.42437 583.32679,331.42437 z" id="path3487" sodipodi:nodetypes="ccsccccccc"/>
    <path style="fill:#782121;fill-opacity:1;fill-rule:nonzero;stroke:none;stroke-width:6;stroke-linecap:round;stroke-linejoin:round;stroke-miterlimit:4;stroke-dasharray:none;stroke-dashoffset:0;stroke-opacity:1" d="M 509.26046,356.125 C 509.4292,356.42853 509.60803,356.71148 509.77666,357.02156 C 509.98365,356.83945 510.17356,356.66042 510.37436,356.47819 C 510.00327,356.34929 509.63377,356.24254 509.26046,356.125 z M 669.92525,378.46615 C 696.18689,521.32219 630.96193,573.48336 544.0088,596.29337 C 515.98582,607.6639 517.84714,609.39976 523.90421,614.17015 C 538.69214,619.45028 555.22016,625.83778 571.82921,622.375 C 643.0528,607.52576 698.29796,528.25495 698.29796,467.51531 C 698.29796,424.85436 702.27005,396.57545 669.92525,378.46615 z" id="path3492" sodipodi:nodetypes="cccccccssc"/>
    <path style="opacity:0.7;fill:#a02c2c;fill-rule:evenodd;stroke:none;stroke-width:1px;stroke-linecap:butt;stroke-linejoin:miter;stroke-opacity:1" d="M 626.26824,372.17157 C 628.22793,474.78544 592.70023,541.07177 509.84375,587 C 598.82005,600.27649 653.88412,541.88284 668,460.375 C 684.04639,352.55982 640.59009,376.49945 626.26824,372.17157 z" id="path3534" sodipodi:nodetypes="cccc"/>
    <path style="fill:#ac2f2f;fill-opacity:1;fill-rule:nonzero;stroke:none;stroke-width:2.10017967;stroke-linecap:round;stroke-linejoin:round;stroke-miterlimit:4;stroke-dashoffset:0;stroke-opacity:1" d="M 378.71385,498.61824 C 374.74582,498.61262 370.39676,499.32345 367.04027,501.83699 C 363.05189,504.50502 363.24587,510.47055 362.77493,515.30574 C 361.70575,520.16888 364.17604,525.19783 367.91329,526.83699 C 374.82301,529.15111 381.89306,530.74693 388.86588,532.77449 C 393.96566,535.16101 399.56373,530.05406 400.14035,523.49324 L 400.14035,523.27449 L 400.1653,522.39949 C 400.29284,516.54442 400.93942,509.01259 395.9249,505.86824 C 391.30972,503.64445 387.33126,500.11853 382.50527,498.80574 C 381.32141,498.68462 380.03653,498.62011 378.71385,498.61824 z M 366.96544,527.52449 C 363.77421,527.66577 360.64771,529.39944 359.50732,533.36824 C 359.04321,534.33793 358.64782,535.53616 358.31003,536.80574 C 360.1881,541.38882 362.16962,545.94241 364.29648,550.39949 C 369.74712,554.11861 375.77231,557.84018 380.98372,561.39949 C 385.63908,565.53344 392.03801,561.14648 393.65503,554.89949 C 394.11524,553.40574 394.54008,551.91517 394.9521,550.39949 C 397.14916,544.84825 396.35118,536.59538 391.31034,534.02449 C 384.66436,531.82115 377.88052,530.23893 371.1809,528.27449 C 369.88364,527.73374 368.416,527.46027 366.96544,527.52449 z M 365.59354,553.05574 C 370.28471,562.6015 375.54055,571.73497 381.25809,580.21199 C 384.46909,575.68709 386.22286,567.96453 382.25584,563.33699 C 378.53063,560.20604 374.11716,558.52481 370.15821,555.86824 C 368.59712,555.09796 367.10312,554.08251 365.59354,553.05574 z" id="path2496"/>
    <path transform="matrix(0.875,0,0,1.1428571,46.75,-64.908883)" sodipodi:type="arc" style="fill:#782121;fill-opacity:1;fill-rule:nonzero;stroke:none;stroke-width:6;stroke-linecap:round;stroke-linejoin:round;stroke-miterlimit:4;stroke-dasharray:none;stroke-dashoffset:0;stroke-opacity:1" id="path3497" sodipodi:cx="390" sodipodi:cy="482.36218" sodipodi:rx="16" sodipodi:ry="28" d="M 406,482.36218 A 16,28 0 1 1 374,482.36218 A 16,28 0 1 1 406,482.36218 z"/>
    <path style="fill:#a02c2c;fill-opacity:1;fill-rule:nonzero;stroke:none;stroke-width:1.4001199;stroke-linecap:round;stroke-linejoin:round;stroke-miterlimit:4;stroke-dashoffset:0;stroke-opacity:1" d="M 285.86784,377.5925 C 285.86784,383.24408 280.74087,387.83087 274.42371,387.83087 C 268.10655,387.83087 273.52808,383.76913 273.52808,378.11754 C 273.52808,372.46596 268.10655,367.35412 274.42371,367.35412 C 280.74087,367.35412 285.86784,371.94091 285.86784,377.5925 z" id="path3359" sodipodi:nodetypes="csssc"/>
    <path style="fill:#ffffff;fill-rule:evenodd;stroke:#000000;stroke-width:1.4001199;stroke-linecap:butt;stroke-linejoin:miter;stroke-miterlimit:4;stroke-dasharray:none;stroke-opacity:1" d="M 253.28055,378.26252 C 253.93402,379.02245 258.24551,380.94015 264.35084,376.08257 C 264.52578,374.28999 273.63019,373.75602 274.83337,371.98421 C 276.57561,369.41858 271.41753,362.25905 271.29064,359.67572 C 271.00386,353.83723 252.65168,365.3554 252.65168,365.3554 C 253.06455,370.2419 249.9434,374.38174 253.28055,378.26252 z" id="path3353" sodipodi:nodetypes="ccsscc"/>
    <path style="fill:#ffffff;fill-rule:evenodd;stroke:#000000;stroke-width:1.4001199;stroke-linecap:butt;stroke-linejoin:miter;stroke-miterlimit:4;stroke-dasharray:none;stroke-opacity:1" d="M 268.94578,386.69189 C 268.94578,386.69189 268.45076,394.36465 270.18332,394.61216 C 271.91588,394.85967 292.9541,385.20684 291.96407,382.97926 C 290.97404,380.75168 287.50892,376.29653 287.50892,376.29653 C 287.50892,376.29653 276.37103,379.51414 275.87601,382.23673 C 275.381,384.95933 268.94578,385.94936 268.94578,386.69189 z" id="path3355"/>
    <path style="fill:none;fill-rule:evenodd;stroke:#000000;stroke-width:1.4001199;stroke-linecap:butt;stroke-linejoin:miter;stroke-miterlimit:4;stroke-dasharray:none;stroke-opacity:1" d="M 262.20551,373.56685 C 262.20551,373.56685 263.94468,376.40647 264.05745,375.79806" id="path3357"/>
    <path style="fill:#e9afaf;fill-opacity:1;fill-rule:evenodd;stroke:#de8787;stroke-width:2.10017967;stroke-linecap:round;stroke-linejoin:miter;stroke-miterlimit:4;stroke-dasharray:none;stroke-opacity:1" d="M 317.2903,320.98072 C 294.69746,293.74595 212.78541,365.00052 250.16479,374.64361 C 264.49147,369.69429 272.23451,362.56065 278.74692,368.2665 C 298.36353,385.45359 247.91253,394.92292 265.35827,397.80028 C 277.44173,398.96084 292.08127,392.79558 308.91513,373.64821 C 312.33274,382.47612 312.04002,391.17421 309.38548,399.44104 C 323.56552,400.66143 336.83565,404.57983 348.52321,410.59825 C 351.15792,389.77583 345.26165,324.41794 317.2903,320.98072 z" id="path2539" sodipodi:nodetypes="ccsccccc"/>
    <path style="fill:none;fill-rule:evenodd;stroke:#de8787;stroke-width:3.50029969;stroke-linecap:butt;stroke-linejoin:miter;stroke-miterlimit:4;stroke-dasharray:none;stroke-opacity:1" d="M 285.79374,350.87491 C 285.79374,350.87491 280.25511,339.2578 289.52909,334.98484" id="path3321" sodipodi:nodetypes="cc"/>
    <path style="fill:#f4d7d7;fill-rule:evenodd;stroke:none;stroke-width:1px;stroke-linecap:butt;stroke-linejoin:miter;stroke-opacity:1" d="M 251.15732,371.78861 C 245.71213,350.99789 273.18558,332.92976 274.42313,330.20717 C 260.49406,331.24616 227.04303,367.29407 251.15732,371.78861 z" id="path3362" sodipodi:nodetypes="ccc"/>
    <path style="fill:#de8787;fill-rule:evenodd;stroke:none;stroke-width:1px;stroke-linecap:butt;stroke-linejoin:miter;stroke-opacity:1" d="M 308.4592,372.17382 C 308.4592,372.17382 316.01185,366.6986 321.61233,356.66571 C 330.52859,372.31535 318.83393,379.87516 311.28431,389.84429 C 311.28431,389.84429 312.17182,371.92631 308.4592,372.17382 z" id="path3364" sodipodi:nodetypes="cccc"/>
    <path style="fill:#e9afaf;fill-opacity:1;fill-rule:nonzero;stroke:#de8787;stroke-width:2.10017967;stroke-linecap:round;stroke-linejoin:round;stroke-miterlimit:4;stroke-dashoffset:0;stroke-opacity:1" d="M 345.30888,501.03716 C 338.87059,499.74192 333.60651,492.28962 337.04351,486.02119 C 340.42316,477.65816 343.84971,467.76024 347.43129,459.48693 C 345.13868,453.46545 356.32698,453.61144 361.78024,456.08 C 367.75344,457.48163 369.65886,464.65104 368.537,470.01611 C 367.54923,478.57961 366.93511,487.20313 365.70229,495.72732 C 363.87348,502.29604 355.81259,504.24392 349.98204,502.14692 C 348.41714,501.80815 346.85894,501.4384 345.30888,501.03716 z M 377.44093,505.51019 C 370.84057,505.5458 364.95273,499.15619 366.58993,492.53528 C 367.60113,483.62452 368.17719,474.64609 369.48213,465.78095 C 370.57291,460.94158 375.23002,457.30498 380.21479,458.07727 C 385.08576,458.10826 390.97142,457.1642 394.19549,461.82159 C 398.16842,467.00655 399.21596,474.77973 399.41582,480.72884 C 398.80587,486.88572 395.88655,492.25338 394.3413,498.25249 C 391.93902,504.85429 384.35973,504.89093 378.52503,505.40442 L 377.65095,505.50038 L 377.44093,505.51019 L 377.44093,505.51019 z M 306.11637,398.38352 C 309.12668,392.47975 317.25073,390.90529 322.38422,394.98841 C 329.96092,399.20632 337.75009,403.10733 345.06812,407.75036 C 350.1667,411.54307 350.04969,418.59198 346.81673,423.52437 C 345.91335,429.17593 339.71248,434.49669 334.59228,433.07192 C 327.21837,431.03918 319.83826,426.21571 312.38926,424.4695 C 319.63761,427.56601 327.18069,429.9687 334.3942,433.11213 C 340.3087,435.19476 342.55813,444.42597 335.69947,446.75358 C 327.91427,451.32493 318.88115,453.07588 310.2818,455.53506 C 305.69715,457.07824 299.76515,458.22522 296.55566,453.48278 C 291.00583,446.82911 292.90389,437.54185 294.74347,429.86884 C 295.03936,424.90329 302.54954,422.13683 304.05301,421.4163 C 299.20701,417.0837 300.5349,409.84611 303.24286,404.71888 C 304.16094,402.59074 305.01925,400.42775 306.11637,398.38352 z M 308.23721,480.83867 C 303.86796,476.29918 298.10063,462.99953 303.30032,457.97422 C 311.87941,456.10282 323.63325,452.55077 333.06588,448.85013 C 337.56778,446.95263 345.27202,445.65079 346.02434,452.38667 C 346.97827,459.33043 342.69936,465.44636 340.97493,471.92528 C 338.90534,477.15738 337.86117,482.82969 335.28674,487.82533 C 331.16108,493.42868 322.93408,491.95086 318.0097,488.27989 C 314.53896,486.10906 311.16215,483.71453 308.23721,480.83867 z" id="path3440" sodipodi:nodetypes="ccccccccccccccccccccccccccccccccccccccccc"/>
    <path style="fill:#de8787;fill-opacity:1;fill-rule:evenodd;stroke:none;stroke-width:1px;stroke-linecap:butt;stroke-linejoin:miter;stroke-opacity:1" d="M 310.22694,420.74555 L 310.22694,420.74555 C 311.9595,420.74555 337.45288,424.21067 338.44291,426.68575 C 339.43295,429.16084 338.44291,431.88343 335.96783,431.38842 C 333.49274,430.8934 311.46448,421.73558 310.22694,420.74555 z" id="path3446"/>
    <path style="fill:#de8787;fill-opacity:1;fill-rule:evenodd;stroke:none;stroke-width:1px;stroke-linecap:butt;stroke-linejoin:miter;stroke-opacity:1" d="M 304.03922,452.92166 C 304.03922,452.92166 335.72032,446.98146 336.21533,443.76385 C 336.71035,440.54623 334.48277,439.30869 334.48277,439.30869 C 334.48277,439.30869 304.78175,453.66419 304.03922,452.92166 z" id="path3448"/>
    <path style="fill:#de8787;fill-opacity:1;fill-rule:evenodd;stroke:none;stroke-width:1px;stroke-linecap:butt;stroke-linejoin:miter;stroke-opacity:1" d="M 322.60236,486.33532 C 322.60236,486.33532 328.29506,493.51307 332.2552,487.57286 C 336.21533,481.63266 345.37315,461.33695 343.39308,459.35689 C 341.41301,457.37682 322.35485,486.08781 322.60236,486.33532 z" id="path3450"/>
    <path style="fill:#de8787;fill-opacity:1;fill-rule:evenodd;stroke:none;stroke-width:1px;stroke-linecap:butt;stroke-linejoin:miter;stroke-opacity:1" d="M 350.32332,498.95825 C 350.32332,498.95825 359.97616,503.1659 363.68878,497.4732 C 367.40141,491.78051 366.41138,464.80207 366.41138,464.80207 C 366.41138,464.80207 352.79841,505.88849 350.32332,498.95825 z" id="path3452"/>
    <path style="fill:#de8787;fill-opacity:1;fill-rule:evenodd;stroke:none;stroke-width:1px;stroke-linecap:butt;stroke-linejoin:miter;stroke-opacity:1" d="M 382.00442,501.68085 C 382.00442,501.68085 391.65725,502.17587 391.90476,499.45327 C 392.15227,496.73068 392.64729,465.29709 392.64729,465.29709 C 392.64729,465.29709 392.39978,457.87183 390.66722,463.06951 C 388.93466,468.26719 388.43964,496.97819 383.24196,501.68085" id="path3454"/>
    <path style="fill:#f4d7d7;fill-opacity:1;fill-rule:evenodd;stroke:none;stroke-width:1px;stroke-linecap:butt;stroke-linejoin:miter;stroke-opacity:1" d="M 317.02051,396.23159 C 317.02051,396.23159 310.71997,393.43135 307.21967,400.08192 C 303.71937,406.73249 339.77246,407.43255 339.77246,407.43255 L 317.02051,396.23159 z" id="path3456"/>
    <path style="fill:#f4d7d7;fill-opacity:1;fill-rule:evenodd;stroke:none;stroke-width:1px;stroke-linecap:butt;stroke-linejoin:miter;stroke-opacity:1" d="M 304.0694,424.23399 C 304.0694,424.23399 295.66868,427.38426 295.66868,433.33477 C 295.66868,439.28528 319.47072,430.53453 321.92093,431.93465 C 324.37114,433.33477 305.11949,424.23399 304.0694,424.23399 z" id="path3458"/>
    <path style="fill:#f4d7d7;fill-opacity:1;fill-rule:evenodd;stroke:none;stroke-width:1px;stroke-linecap:butt;stroke-linejoin:miter;stroke-opacity:1" d="M 303.71937,461.6872 C 303.71937,461.6872 303.36934,472.1881 306.51961,472.1881 C 309.66988,472.1881 328.5715,453.63651 331.02171,454.33657 C 333.47192,455.03663 302.66928,459.23699 303.71937,461.6872 z" id="path3460"/>
    <path style="fill:#f4d7d7;fill-opacity:1;fill-rule:evenodd;stroke:none;stroke-width:1px;stroke-linecap:butt;stroke-linejoin:miter;stroke-opacity:1" d="M 351.61878,456.59437 C 351.56489,456.59937 351.52034,456.60531 351.48752,456.61625 C 344.87544,465.73137 340.89307,480.571 338.02231,491.44423 C 337.32225,496.69468 340.82255,494.24447 340.82255,494.24447 C 342.9604,494.77894 344.84268,473.19786 348.56975,465.09697 C 352.40819,456.75399 360.11767,458.7107 360.53361,458.00543 C 360.85917,457.45342 352.6942,456.49461 351.61878,456.59437 z" id="path3462" sodipodi:nodetypes="ccccssc"/>
    <path sodipodi:nodetypes="cccscc" id="path3471" d="M 375.00083,460.45263 C 369.25504,469.32024 371.21287,485.39741 368.34211,496.27065 C 367.64205,501.5211 371.14235,499.07089 371.14235,499.07089 C 373.2802,499.60535 372.93491,473.44537 376.66197,465.34447 C 380.50041,457.0015 387.83863,462.17582 389.86337,461.59431 C 385.29289,458.82168 376.85254,459.63682 375.00083,460.45263 z" style="fill:#f4d7d7;fill-opacity:1;fill-rule:evenodd;stroke:none;stroke-width:1px;stroke-linecap:butt;stroke-linejoin:miter;stroke-opacity:1"/>
    <path style="fill:#de8787;fill-opacity:1;fill-rule:evenodd;stroke:none;stroke-width:1px;stroke-linecap:butt;stroke-linejoin:miter;stroke-opacity:1" d="M 340.16624,352.94175 C 338.03655,355.14453 335.58909,357.09522 332.88124,358.73912 C 336.66247,379.1442 337.68698,398.22449 337.42069,398.27063 C 337.46184,398.28547 345.43375,401.15844 347.30904,403.70703 C 345.74751,386.51014 345.74236,369.57355 340.16624,352.94175 z" id="path3473"/>
    <path sodipodi:type="arc" style="fill:#000000;fill-opacity:1;fill-rule:nonzero;stroke:#000000;stroke-width:2.66900158;stroke-linecap:round;stroke-linejoin:round;stroke-miterlimit:4;stroke-dasharray:none;stroke-dashoffset:0;stroke-opacity:1" id="path3319" sodipodi:cx="383.5" sodipodi:cy="236.86218" sodipodi:rx="17.5" sodipodi:ry="17.5" d="M 401,236.86218 A 17.5,17.5 0 1 1 366,236.86218 A 17.5,17.5 0 1 1 401,236.86218 z" transform="matrix(0.2191736,0,0,0.3052114,203.5153,275.37717)"/>
    <path sodipodi:type="arc" style="opacity:1;fill:#f4d7d7;fill-opacity:1;fill-rule:nonzero;stroke:none;stroke-width:6;stroke-linecap:round;stroke-linejoin:round;stroke-miterlimit:4;stroke-dasharray:none;stroke-dashoffset:0;stroke-opacity:1" id="path3352" sodipodi:cx="49.851028" sodipodi:cy="144.70023" sodipodi:rx="1.767767" sodipodi:ry="2.6516504" d="M 51.618795,144.70023 A 1.767767,2.6516504 0 1 1 48.083261,144.70023 A 1.767767,2.6516504 0 1 1 51.618795,144.70023 z" transform="matrix(1.3535534,0,0,1.0471405,221.08643,193.87328)"/>
    <path style="fill:#e3dedb;fill-rule:evenodd;stroke:none;stroke-width:1px;stroke-linecap:butt;stroke-linejoin:miter;stroke-opacity:1" d="M 252.87502,374.32177 C 252.87502,374.32177 270.55268,366.5436 271.43657,367.07393 C 272.32045,367.60426 262.77451,372.73078 262.77451,372.73078 L 261.53707,371.49334 L 259.41575,373.26111 L 252.87502,374.32177 z" id="path3376"/>
    <g transform="matrix(0.4149317,0.8328719,-0.8691885,0.397595,547.03061,-75.94848)" id="g3544">
      <g id="g3546" transform="matrix(0.8805759,-0.4739053,0.4739053,0.8805759,-53.830468,102.10062)">
        <g id="g3548">
          <path transform="matrix(1.2278481,0,0,1,-90.455696,0)" style="opacity:1;fill:#338000;fill-opacity:1;fill-rule:nonzero;stroke:none;stroke-width:6;stroke-linecap:round;stroke-linejoin:round;stroke-miterlimit:4;stroke-dashoffset:0;stroke-opacity:1" d="M 397,223.36218 C 397,274.14618 379.304,295.36218 357.5,295.36218 C 335.696,295.36218 318,274.14618 318,223.36218 C 318,172.57818 335.696,111.36218 357.5,111.36218 C 379.304,111.36218 397,172.57818 397,223.36218 z" id="path3550" sodipodi:nodetypes="csssc"/>
        </g>
        <path id="path3552" d="M 351.71875,112.375 C 351.71874,112.375 354.42248,130.79901 354.71875,155.46875 C 360.60107,152.03249 365.95373,148.09247 369.21875,145.0625 C 366.28023,153.77847 360.80744,160.08542 354.6875,164.65625 C 354.64798,167.49786 354.5551,170.40604 354.4375,173.34375 C 347.53974,169.7872 340.88228,165.02029 337.15625,161.5625 C 340.40066,171.18577 347.01267,177.6535 353.96875,181.96875 C 353.46604,189.26745 352.68965,196.71418 351.5,204.09375 C 351.30928,205.27683 351.14223,206.45424 350.96875,207.625 C 360.73517,204.03703 371.8258,196.5672 377.21875,191.5625 C 372.23071,206.35755 359.92847,214.26404 349.59375,218.40625 C 349.20007,222.00555 348.874,225.50356 348.625,228.9375 C 339.15781,225.23722 329.22528,218.39047 325.1875,213.21875 C 329.44093,225.83489 339.01659,233.39979 348.15625,237.9375 C 347.81945,246.00296 347.80428,253.4888 348.03125,260.21875 C 359.79387,258.3192 376.45143,247.46514 383.6875,240.75 C 377.43485,259.29603 360.59858,267.88812 348.65625,271.75 C 348.85593,274.40678 349.07664,276.85023 349.3125,279.125 C 337.88625,275.0581 324.49612,266.21196 318.8125,260.9375 C 324.75026,278.54953 340.17851,285.94321 350.5625,289 C 351.00086,291.87578 351.416,294.14139 351.65625,295.21875 C 375.87476,292.47175 394.71875,270.8325 394.71875,223.53125 C 394.71874,176.26581 375.91079,119.94986 351.71875,112.375 z" style="opacity:1;fill:#70a64c;fill-opacity:1;fill-rule:nonzero;stroke:none;stroke-width:6;stroke-linecap:round;stroke-linejoin:round;stroke-miterlimit:4;stroke-dashoffset:0;stroke-opacity:1"/>
      </g>
      <path style="fill:#338000;fill-opacity:1;fill-rule:evenodd;stroke:none;stroke-width:1px;stroke-linecap:butt;stroke-linejoin:miter;stroke-opacity:1" d="M 379.98288,195.62502 C 392.97372,198.0916 398.06937,202.81267 404.21193,218.8041 C 407.64313,218.29701 411.34697,214.30702 410.76157,210.84331 C 401.82465,200.9126 401.34065,187.90527 395.04924,193.60828 C 392.80097,195.64628 389.82249,186.05454 379.98288,195.62502 z" id="path3554" sodipodi:nodetypes="cccsc"/>
    </g>
    <g id="g3517">
      <path id="path3339" d="M 516.18795,355.1549 C 516.18795,355.1549 511.94531,376.3681 519.01638,377.78231 C 526.08745,379.19653 540.22958,373.53967 540.22958,373.53967 C 540.22958,373.53967 529.62298,353.74068 525.38034,354.44779 C 521.1377,355.1549 516.18795,355.862 516.18795,355.1549 z" style="fill:#ac2f2f;fill-opacity:1;fill-rule:evenodd;stroke:none;stroke-width:1px;stroke-linecap:butt;stroke-linejoin:miter;stroke-opacity:1"/>
      <path sodipodi:nodetypes="cscsc" id="path3563" d="M 518.09831,356.27319 C 518.09831,356.27319 558.58632,186.51192 599.53708,212.1836 C 640.48784,237.85527 594.95668,238.81103 594.95668,238.81103 C 572.93485,260.07223 535.94244,352.73757 531.45423,362.83253 C 525.77545,375.60533 519.94762,357.53019 518.09831,356.27319 z" style="fill:#c87137;fill-rule:evenodd;stroke:none;stroke-width:1px;stroke-linecap:butt;stroke-linejoin:miter;stroke-opacity:1"/>
      <path sodipodi:nodetypes="cccccsccsc" id="path3341" d="M 587.58518,232.05973 C 587.52966,232.06135 591.06802,229.61611 591.06802,229.61611 C 569.04619,250.8773 533.47044,343.90595 528.98223,354.00091 C 526.59328,357.37762 526.393,360.73841 526.44302,364.70986 C 526.44302,365.04906 526.44853,365.37268 526.44302,365.70986 C 526.82422,365.11631 529.3084,364.76398 529.68934,363.90716 C 534.17755,353.8122 569.04619,260.78356 591.06802,239.52236 C 591.06802,239.52236 592.45259,239.45745 594.28677,239.30361 C 592.51044,236.54597 591.47427,233.37605 591.47427,229.99111 C 591.47427,229.85315 587.58183,232.197 587.58518,232.05973 z" style="fill:#784421;fill-rule:evenodd;stroke:none;stroke-width:1px;stroke-linecap:butt;stroke-linejoin:miter;stroke-opacity:1"/>
    </g>
    <g id="g3537" transform="matrix(0.999069,-4.3140495e-2,4.3140495e-2,0.999069,108.90298,152.39192)">
      <g transform="matrix(0.8805759,-0.4739053,0.4739053,0.8805759,-53.830468,102.10062)" id="g3326">
        <g id="g3323">
          <path sodipodi:nodetypes="csssc" id="path3295" d="M 397,223.36218 C 397,274.14618 379.304,295.36218 357.5,295.36218 C 335.696,295.36218 318,274.14618 318,223.36218 C 318,172.57818 335.696,111.36218 357.5,111.36218 C 379.304,111.36218 397,172.57818 397,223.36218 z" style="opacity:1;fill:#338000;fill-opacity:1;fill-rule:nonzero;stroke:none;stroke-width:6;stroke-linecap:round;stroke-linejoin:round;stroke-miterlimit:4;stroke-dashoffset:0;stroke-opacity:1" transform="matrix(1.2278481,0,0,1,-90.455696,0)"/>
        </g>
        <path style="opacity:1;fill:#70a64c;fill-opacity:1;fill-rule:nonzero;stroke:none;stroke-width:6;stroke-linecap:round;stroke-linejoin:round;stroke-miterlimit:4;stroke-dashoffset:0;stroke-opacity:1" d="M 351.71875,112.375 C 351.71874,112.375 354.42248,130.79901 354.71875,155.46875 C 360.60107,152.03249 365.95373,148.09247 369.21875,145.0625 C 366.28023,153.77847 360.80744,160.08542 354.6875,164.65625 C 354.64798,167.49786 354.5551,170.40604 354.4375,173.34375 C 347.53974,169.7872 340.88228,165.02029 337.15625,161.5625 C 340.40066,171.18577 347.01267,177.6535 353.96875,181.96875 C 353.46604,189.26745 352.68965,196.71418 351.5,204.09375 C 351.30928,205.27683 351.14223,206.45424 350.96875,207.625 C 360.73517,204.03703 371.8258,196.5672 377.21875,191.5625 C 372.23071,206.35755 359.92847,214.26404 349.59375,218.40625 C 349.20007,222.00555 348.874,225.50356 348.625,228.9375 C 339.15781,225.23722 329.22528,218.39047 325.1875,213.21875 C 329.44093,225.83489 339.01659,233.39979 348.15625,237.9375 C 347.81945,246.00296 347.80428,253.4888 348.03125,260.21875 C 359.79387,258.3192 376.45143,247.46514 383.6875,240.75 C 377.43485,259.29603 360.59858,267.88812 348.65625,271.75 C 348.85593,274.40678 349.07664,276.85023 349.3125,279.125 C 337.88625,275.0581 324.49612,266.21196 318.8125,260.9375 C 324.75026,278.54953 340.17851,285.94321 350.5625,289 C 351.00086,291.87578 351.416,294.14139 351.65625,295.21875 C 375.87476,292.47175 394.71875,270.8325 394.71875,223.53125 C 394.71874,176.26581 375.91079,119.94986 351.71875,112.375 z" id="path3299"/>
      </g>
      <path sodipodi:nodetypes="cccsc" id="path3522" d="M 379.98288,195.62502 C 392.97372,198.0916 398.06937,202.81267 404.21193,218.8041 C 407.64313,218.29701 411.34697,214.30702 410.76157,210.84331 C 401.82465,200.9126 401.34065,187.90527 395.04924,193.60828 C 392.80097,195.64628 389.82249,186.05454 379.98288,195.62502 z" style="fill:#338000;fill-opacity:1;fill-rule:evenodd;stroke:none;stroke-width:1px;stroke-linecap:butt;stroke-linejoin:miter;stroke-opacity:1"/>
    </g>
    <path style="fill:#784421;fill-opacity:1;fill-rule:evenodd;stroke:none;stroke-width:1px;stroke-linecap:butt;stroke-linejoin:miter;stroke-opacity:1" d="M 290.20667,147.93766 L 292.0351,154.06938 L 287.43891,162.20111 C 287.43891,162.20111 284.96403,153.00872 282.48916,152.65517 C 280.01429,152.30162 288.43891,156.42294 290.20667,147.93766 z" id="path3556" transform="translate(239.48288,200.77662)" sodipodi:nodetypes="cccsc"/>
  </g>
  <metadata>
    <rdf:RDF>
      <cc:Work>
        <dc:format>image/svg+xml</dc:format>
        <dc:type rdf:resource="http://purl.org/dc/dcmitype/StillImage"/>
        <cc:license rdf:resource="http://creativecommons.org/licenses/publicdomain/"/>
        <dc:publisher>
          <cc:Agent rdf:about="http://openclipart.org/">
            <dc:title>Open Clip Art Library</dc:title>
          </cc:Agent>
        </dc:publisher>
        <dc:title>cartoon apple with worm</dc:title>
        <dc:date>2008-11-23T10:52:00</dc:date>
        <dc:description/>
        <dc:source>http://openclipart.org/detail/20366/cartoon-apple-with-worm-by-rg1024-20366</dc:source>
        <dc:creator>
          <cc:Agent>
            <dc:title>rg1024</dc:title>
          </cc:Agent>
        </dc:creator>
        <dc:subject>
          <rdf:Bag>
            <rdf:li>apple</rdf:li>
            <rdf:li>apple</rdf:li>
            <rdf:li>bug</rdf:li>
            <rdf:li>bug</rdf:li>
            <rdf:li>cartoon</rdf:li>
            <rdf:li>cartoon</rdf:li>
            <rdf:li>clip art</rdf:li>
            <rdf:li>clipart</rdf:li>
            <rdf:li>color</rdf:li>
            <rdf:li>color</rdf:li>
            <rdf:li>food</rdf:li>
            <rdf:li>food</rdf:li>
            <rdf:li>fruit</rdf:li>
            <rdf:li>fruit</rdf:li>
            <rdf:li>image</rdf:li>
            <rdf:li>insect</rdf:li>
            <rdf:li>insect</rdf:li>
            <rdf:li>media</rdf:li>
            <rdf:li>png</rdf:li>
            <rdf:li>public domain</rdf:li>
            <rdf:li>svg</rdf:li>
            <rdf:li>worm</rdf:li>
            <rdf:li>worm</rdf:li>
          </rdf:Bag>
        </dc:subject>
      </cc:Work>
      <cc:License rdf:about="http://creativecommons.org/licenses/publicdomain/">
        <cc:permits rdf:resource="http://creativecommons.org/ns#Reproduction"/>
        <cc:permits rdf:resource="http://creativecommons.org/ns#Distribution"/>
        <cc:permits rdf:resource="http://creativecommons.org/ns#DerivativeWorks"/>
      </cc:License>
    </rdf:RDF>
  </metadata>
</svg>